<svg width="194" height="64" viewBox="0 0 194 64" fill="none" xmlns="http://www.w3.org/2000/svg">
<path d="M0.490173 24.2368C4.90922 2.30114 21.6648 15.097 29.4902 24.2368" stroke="black"/>
<path d="M11.4902 24.439C11.4902 -1.485 32.2045 13.6373 41.4902 24.439" stroke="#DE6800"/>
<path d="M47.2024 24.24C46.7224 24.24 46.3384 24.112 46.0504 23.856C45.7624 23.6 45.6184 23.248 45.6184 22.8V12.912C45.6184 11.056 46.1464 9.6 47.2024 8.544C48.2584 7.488 49.7144 6.96 51.5704 6.96C52.4664 6.96 53.3064 7.184 54.0904 7.632C54.8904 8.064 55.5784 8.688 56.1544 9.504C56.7144 8.672 57.3864 8.04 58.1704 7.608C58.9704 7.176 59.8344 6.96 60.7624 6.96C62.6184 6.96 64.0744 7.488 65.1304 8.544C66.1864 9.6 66.7144 11.056 66.7144 12.912V22.8C66.7144 23.232 66.5624 23.584 66.2584 23.856C65.9704 24.112 65.5864 24.24 65.1064 24.24C64.6264 24.24 64.2424 24.112 63.9544 23.856C63.6664 23.6 63.5224 23.248 63.5224 22.8V12.912C63.5224 11.696 63.2984 10.824 62.8504 10.296C62.4024 9.752 61.6664 9.48 60.6424 9.48C59.7144 9.48 58.9944 9.776 58.4824 10.368C57.9864 10.96 57.7384 11.808 57.7384 12.912V22.8C57.7384 23.248 57.5944 23.6 57.3064 23.856C57.0184 24.112 56.6344 24.24 56.1544 24.24C55.6744 24.24 55.2904 24.112 55.0024 23.856C54.7304 23.6 54.5944 23.248 54.5944 22.8V12.912C54.5944 11.84 54.3384 11 53.8264 10.392C53.3144 9.784 52.6024 9.48 51.6904 9.48C50.6664 9.48 49.9304 9.752 49.4824 10.296C49.0344 10.824 48.8104 11.696 48.8104 12.912V22.8C48.8104 23.232 48.6584 23.584 48.3544 23.856C48.0664 24.112 47.6824 24.24 47.2024 24.24ZM70.8714 24.216C70.3914 24.216 70.0074 24.088 69.7194 23.832C69.4314 23.576 69.2874 23.224 69.2874 22.776V14.376C69.2874 12.056 69.9514 10.24 71.2794 8.928C72.6074 7.616 74.4554 6.96 76.8234 6.96C78.3754 6.96 79.7194 7.256 80.8554 7.848C81.9914 8.44 82.8554 9.296 83.4474 10.416C84.0554 11.536 84.3594 12.856 84.3594 14.376V22.776C84.3594 23.224 84.2154 23.576 83.9274 23.832C83.6394 24.088 83.2554 24.216 82.7754 24.216C82.2954 24.216 81.9034 24.088 81.5994 23.832C81.3114 23.56 81.1674 23.208 81.1674 22.776V18.864H72.4794V22.776C72.4794 23.208 72.3274 23.56 72.0234 23.832C71.7354 24.088 71.3514 24.216 70.8714 24.216ZM81.1674 16.392V14.304C81.1674 12.704 80.7994 11.504 80.0634 10.704C79.3434 9.888 78.2634 9.48 76.8234 9.48C73.9274 9.48 72.4794 11.088 72.4794 14.304V16.392H81.1674ZM101.011 21.96C101.187 22.184 101.275 22.44 101.275 22.728C101.275 22.984 101.211 23.232 101.083 23.472C100.955 23.696 100.787 23.872 100.579 24C100.323 24.144 100.075 24.216 99.8351 24.216C99.4351 24.216 99.0271 23.976 98.6111 23.496L93.8111 17.736L89.0111 23.496C88.6111 23.976 88.2031 24.216 87.7871 24.216C87.5631 24.216 87.3151 24.144 87.0431 24C86.8351 23.872 86.6671 23.696 86.5391 23.472C86.4111 23.232 86.3471 22.984 86.3471 22.728C86.3471 22.44 86.4351 22.184 86.6111 21.96L91.9391 15.504L86.8991 9.456C86.6431 9.152 86.5151 8.808 86.5151 8.424C86.5151 8.184 86.5711 7.96 86.6831 7.752C86.7951 7.528 86.9471 7.36 87.1391 7.248C87.4431 7.072 87.7231 6.984 87.9791 6.984C88.4111 6.984 88.8191 7.216 89.2031 7.68L93.8111 13.248L98.4191 7.68C98.8031 7.216 99.2111 6.984 99.6431 6.984C99.9311 6.984 100.211 7.072 100.483 7.248C100.675 7.36 100.827 7.528 100.939 7.752C101.051 7.96 101.107 8.184 101.107 8.424C101.107 8.808 100.979 9.152 100.723 9.456L95.6831 15.504L101.011 21.96Z" fill="black"/>
<path d="M105.304 24.24C104.824 24.24 104.44 24.112 104.152 23.856C103.864 23.6 103.72 23.248 103.72 22.8V10.752C103.72 9.632 104.04 8.76 104.68 8.136C105.336 7.512 106.24 7.2 107.392 7.2H114.856C115.336 7.2 115.704 7.312 115.96 7.536C116.216 7.744 116.344 8.048 116.344 8.448C116.344 8.832 116.208 9.136 115.936 9.36C115.68 9.568 115.32 9.672 114.856 9.672H107.944C107.624 9.672 107.368 9.776 107.176 9.984C107 10.192 106.912 10.48 106.912 10.848V14.424H113.032C113.512 14.424 113.88 14.536 114.136 14.76C114.392 14.968 114.52 15.272 114.52 15.672C114.52 16.056 114.384 16.36 114.112 16.584C113.856 16.792 113.496 16.896 113.032 16.896H106.912V22.8C106.912 23.232 106.76 23.584 106.456 23.856C106.168 24.112 105.784 24.24 105.304 24.24ZM125.722 24.24C123.85 24.24 122.234 23.88 120.874 23.16C119.53 22.424 118.506 21.408 117.802 20.112C117.098 18.8 116.746 17.296 116.746 15.6C116.746 13.904 117.098 12.408 117.802 11.112C118.506 9.8 119.53 8.784 120.874 8.064C122.234 7.328 123.85 6.96 125.722 6.96C127.594 6.96 129.202 7.328 130.546 8.064C131.906 8.784 132.938 9.8 133.642 11.112C134.346 12.408 134.698 13.904 134.698 15.6C134.698 17.296 134.346 18.8 133.642 20.112C132.938 21.408 131.906 22.424 130.546 23.16C129.202 23.88 127.594 24.24 125.722 24.24ZM125.722 21.72C127.546 21.72 128.962 21.176 129.97 20.088C130.978 18.984 131.482 17.488 131.482 15.6C131.482 13.696 130.954 12.2 129.898 11.112C128.858 10.024 127.386 9.48 125.482 9.48C123.738 9.48 122.378 10.04 121.402 11.16C120.442 12.264 119.962 13.744 119.962 15.6C119.962 17.488 120.466 18.984 121.474 20.088C122.482 21.176 123.898 21.72 125.722 21.72ZM137.142 10.752C137.142 9.632 137.462 8.76 138.102 8.136C138.758 7.512 139.662 7.2 140.814 7.2H145.086C147.47 7.2 149.27 7.664 150.486 8.592C151.702 9.52 152.31 10.904 152.31 12.744C152.31 14.456 151.798 15.792 150.774 16.752C149.766 17.712 148.406 18.192 146.694 18.192L150.342 21.816C150.63 22.104 150.774 22.432 150.774 22.8C150.774 23.184 150.606 23.52 150.27 23.808C149.918 24.08 149.574 24.216 149.238 24.216C148.774 24.216 148.35 24.008 147.966 23.592L142.782 18.288H140.334V22.8C140.334 23.248 140.182 23.6 139.878 23.856C139.574 24.112 139.19 24.24 138.726 24.24C138.246 24.24 137.862 24.112 137.574 23.856C137.286 23.6 137.142 23.248 137.142 22.8V10.752ZM144.99 15.816C146.046 15.816 146.87 15.712 147.462 15.504C148.054 15.296 148.47 14.976 148.71 14.544C148.966 14.096 149.094 13.496 149.094 12.744C149.094 11.656 148.758 10.872 148.086 10.392C147.43 9.912 146.398 9.672 144.99 9.672H141.366C141.046 9.672 140.79 9.776 140.598 9.984C140.422 10.192 140.334 10.48 140.334 10.848V15.816H144.99ZM163.335 24.24C161.527 24.24 159.959 23.896 158.631 23.208C157.303 22.52 156.287 21.528 155.583 20.232C154.879 18.936 154.527 17.4 154.527 15.624C154.527 13.848 154.879 12.312 155.583 11.016C156.287 9.704 157.295 8.704 158.607 8.016C159.935 7.312 161.495 6.96 163.287 6.96C164.775 6.96 166.151 7.216 167.415 7.728C168.679 8.24 169.615 8.92 170.223 9.768C170.415 10.024 170.511 10.288 170.511 10.56C170.511 10.96 170.295 11.32 169.863 11.64C169.671 11.784 169.431 11.856 169.143 11.856C168.903 11.856 168.663 11.808 168.423 11.712C168.183 11.6 167.983 11.448 167.823 11.256C167.279 10.632 166.647 10.184 165.927 9.912C165.207 9.624 164.327 9.48 163.287 9.48C161.543 9.48 160.183 10.024 159.207 11.112C158.231 12.184 157.743 13.688 157.743 15.624C157.743 17.544 158.231 19.04 159.207 20.112C160.199 21.184 161.575 21.72 163.335 21.72C165.351 21.72 166.959 21.128 168.159 19.944C168.655 19.48 169.111 19.248 169.527 19.248C169.815 19.248 170.079 19.344 170.319 19.536C170.687 19.856 170.871 20.208 170.871 20.592C170.871 20.88 170.767 21.16 170.559 21.432C169.871 22.312 168.887 23 167.607 23.496C166.343 23.992 164.919 24.24 163.335 24.24ZM177.169 24C175.953 24 175.009 23.68 174.337 23.04C173.665 22.4 173.329 21.504 173.329 20.352V10.752C173.329 9.632 173.649 8.76 174.289 8.136C174.945 7.512 175.849 7.2 177.001 7.2H184.465C184.945 7.2 185.313 7.312 185.569 7.536C185.825 7.744 185.953 8.048 185.953 8.448C185.953 8.832 185.817 9.136 185.545 9.36C185.289 9.568 184.929 9.672 184.465 9.672H177.553C177.233 9.672 176.977 9.776 176.785 9.984C176.609 10.192 176.521 10.48 176.521 10.848V14.184H182.641C183.121 14.184 183.489 14.296 183.745 14.52C184.001 14.728 184.129 15.032 184.129 15.432C184.129 15.816 183.993 16.12 183.721 16.344C183.465 16.552 183.105 16.656 182.641 16.656H176.521V20.352C176.521 20.72 176.609 21.008 176.785 21.216C176.977 21.424 177.233 21.528 177.553 21.528H184.993C185.473 21.528 185.841 21.64 186.097 21.864C186.353 22.072 186.481 22.376 186.481 22.776C186.481 23.16 186.345 23.464 186.073 23.688C185.817 23.896 185.457 24 184.993 24H177.169Z" fill="#DE6800"/>
</svg>
