<svg width="303" height="69" viewBox="0 0 303 69" fill="none" xmlns="http://www.w3.org/2000/svg">
<path d="M2.47632 39.8422C11.849 -27.7879 47.3873 11.663 63.9848 39.8422" stroke="black" stroke-width="5"/>
<path d="M35.864 39.8423C35.864 -16.7783 74.0871 16.2503 91.2216 39.8422" stroke="#DE6800" stroke-width="6"/>
<path d="M102.19 44.4767C101.55 44.4767 101.038 44.3061 100.654 43.9647C100.27 43.6234 100.078 43.1541 100.078 42.5567V29.3727C100.078 26.8981 100.782 24.9567 102.19 23.5487C103.598 22.1407 105.539 21.4367 108.014 21.4367C109.209 21.4367 110.329 21.7354 111.374 22.3327C112.441 22.9087 113.358 23.7407 114.126 24.8287C114.873 23.7194 115.769 22.8767 116.814 22.3007C117.881 21.7247 119.033 21.4367 120.27 21.4367C122.745 21.4367 124.686 22.1407 126.094 23.5487C127.502 24.9567 128.206 26.8981 128.206 29.3727V42.5567C128.206 43.1327 128.003 43.6021 127.598 43.9647C127.214 44.3061 126.702 44.4767 126.062 44.4767C125.422 44.4767 124.91 44.3061 124.526 43.9647C124.142 43.6234 123.95 43.1541 123.95 42.5567V29.3727C123.95 27.7514 123.651 26.5887 123.054 25.8847C122.457 25.1594 121.475 24.7967 120.11 24.7967C118.873 24.7967 117.913 25.1914 117.23 25.9807C116.569 26.7701 116.238 27.9007 116.238 29.3727V42.5567C116.238 43.1541 116.046 43.6234 115.662 43.9647C115.278 44.3061 114.766 44.4767 114.126 44.4767C113.486 44.4767 112.974 44.3061 112.59 43.9647C112.227 43.6234 112.046 43.1541 112.046 42.5567V29.3727C112.046 27.9434 111.705 26.8234 111.022 26.0127C110.339 25.2021 109.39 24.7967 108.174 24.7967C106.809 24.7967 105.827 25.1594 105.23 25.8847C104.633 26.5887 104.334 27.7514 104.334 29.3727V42.5567C104.334 43.1327 104.131 43.6021 103.726 43.9647C103.342 44.3061 102.83 44.4767 102.19 44.4767ZM133.749 44.4447C133.109 44.4447 132.597 44.2741 132.213 43.9327C131.829 43.5914 131.637 43.1221 131.637 42.5247V31.3247C131.637 28.2314 132.522 25.8101 134.293 24.0607C136.063 22.3114 138.527 21.4367 141.685 21.4367C143.754 21.4367 145.546 21.8314 147.061 22.6207C148.575 23.4101 149.727 24.5514 150.517 26.0447C151.327 27.5381 151.733 29.2981 151.733 31.3247V42.5247C151.733 43.1221 151.541 43.5914 151.157 43.9327C150.773 44.2741 150.261 44.4447 149.621 44.4447C148.981 44.4447 148.458 44.2741 148.053 43.9327C147.669 43.5701 147.477 43.1007 147.477 42.5247V37.3087H135.893V42.5247C135.893 43.1007 135.69 43.5701 135.285 43.9327C134.901 44.2741 134.389 44.4447 133.749 44.4447ZM147.477 34.0127V31.2287C147.477 29.0954 146.986 27.4954 146.005 26.4287C145.045 25.3407 143.605 24.7967 141.685 24.7967C137.823 24.7967 135.893 26.9407 135.893 31.2287V34.0127H147.477ZM173.935 41.4367C174.17 41.7354 174.287 42.0767 174.287 42.4607C174.287 42.8021 174.202 43.1327 174.031 43.4527C173.86 43.7514 173.636 43.9861 173.359 44.1567C173.018 44.3487 172.687 44.4447 172.367 44.4447C171.834 44.4447 171.29 44.1247 170.735 43.4847L164.335 35.8047L157.935 43.4847C157.402 44.1247 156.858 44.4447 156.303 44.4447C156.004 44.4447 155.674 44.3487 155.311 44.1567C155.034 43.9861 154.81 43.7514 154.639 43.4527C154.468 43.1327 154.383 42.8021 154.383 42.4607C154.383 42.0767 154.5 41.7354 154.735 41.4367L161.839 32.8287L155.119 24.7647C154.778 24.3594 154.607 23.9007 154.607 23.3887C154.607 23.0687 154.682 22.7701 154.831 22.4927C154.98 22.1941 155.183 21.9701 155.439 21.8207C155.844 21.5861 156.218 21.4687 156.559 21.4687C157.135 21.4687 157.679 21.7781 158.191 22.3967L164.335 29.8207L170.479 22.3967C170.991 21.7781 171.535 21.4687 172.111 21.4687C172.495 21.4687 172.868 21.5861 173.231 21.8207C173.487 21.9701 173.69 22.1941 173.839 22.4927C173.988 22.7701 174.063 23.0687 174.063 23.3887C174.063 23.9007 173.892 24.3594 173.551 24.7647L166.831 32.8287L173.935 41.4367Z" fill="black"/>
<path d="M179.659 44.4767C179.019 44.4767 178.507 44.3061 178.123 43.9647C177.739 43.6234 177.547 43.1541 177.547 42.5567V26.4927C177.547 24.9994 177.973 23.8367 178.827 23.0047C179.701 22.1727 180.907 21.7567 182.443 21.7567H192.395C193.035 21.7567 193.525 21.9061 193.867 22.2047C194.208 22.4821 194.379 22.8874 194.379 23.4207C194.379 23.9327 194.197 24.3381 193.835 24.6367C193.493 24.9141 193.013 25.0527 192.395 25.0527H183.179C182.752 25.0527 182.411 25.1914 182.155 25.4687C181.92 25.7461 181.803 26.1301 181.803 26.6207V31.3887H189.963C190.603 31.3887 191.093 31.5381 191.435 31.8367C191.776 32.1141 191.947 32.5194 191.947 33.0527C191.947 33.5647 191.765 33.9701 191.403 34.2687C191.061 34.5461 190.581 34.6847 189.963 34.6847H181.803V42.5567C181.803 43.1327 181.6 43.6021 181.195 43.9647C180.811 44.3061 180.299 44.4767 179.659 44.4767ZM206.882 44.4767C204.386 44.4767 202.232 43.9967 200.418 43.0367C198.626 42.0554 197.261 40.7007 196.322 38.9727C195.384 37.2234 194.914 35.2181 194.914 32.9567C194.914 30.6954 195.384 28.7007 196.322 26.9727C197.261 25.2234 198.626 23.8687 200.418 22.9087C202.232 21.9274 204.386 21.4367 206.882 21.4367C209.378 21.4367 211.522 21.9274 213.314 22.9087C215.128 23.8687 216.504 25.2234 217.442 26.9727C218.381 28.7007 218.85 30.6954 218.85 32.9567C218.85 35.2181 218.381 37.2234 217.442 38.9727C216.504 40.7007 215.128 42.0554 213.314 43.0367C211.522 43.9967 209.378 44.4767 206.882 44.4767ZM206.882 41.1167C209.314 41.1167 211.202 40.3914 212.546 38.9407C213.89 37.4687 214.562 35.4741 214.562 32.9567C214.562 30.4181 213.858 28.4234 212.45 26.9727C211.064 25.5221 209.101 24.7967 206.562 24.7967C204.237 24.7967 202.424 25.5434 201.122 27.0367C199.842 28.5087 199.202 30.4821 199.202 32.9567C199.202 35.4741 199.874 37.4687 201.218 38.9407C202.562 40.3914 204.45 41.1167 206.882 41.1167ZM222.109 26.4927C222.109 24.9994 222.536 23.8367 223.389 23.0047C224.264 22.1727 225.469 21.7567 227.005 21.7567H232.701C235.88 21.7567 238.28 22.3754 239.901 23.6127C241.523 24.8501 242.333 26.6954 242.333 29.1487C242.333 31.4314 241.651 33.2127 240.285 34.4927C238.941 35.7727 237.128 36.4127 234.845 36.4127L239.709 41.2447C240.093 41.6287 240.285 42.0661 240.285 42.5567C240.285 43.0687 240.061 43.5167 239.613 43.9007C239.144 44.2634 238.685 44.4447 238.237 44.4447C237.619 44.4447 237.053 44.1674 236.541 43.6127L229.629 36.5407H226.365V42.5567C226.365 43.1541 226.163 43.6234 225.757 43.9647C225.352 44.3061 224.84 44.4767 224.221 44.4767C223.581 44.4767 223.069 44.3061 222.685 43.9647C222.301 43.6234 222.109 43.1541 222.109 42.5567V26.4927ZM232.573 33.2447C233.981 33.2447 235.08 33.1061 235.869 32.8287C236.659 32.5514 237.213 32.1247 237.533 31.5487C237.875 30.9514 238.045 30.1514 238.045 29.1487C238.045 27.6981 237.597 26.6527 236.701 26.0127C235.827 25.3727 234.451 25.0527 232.573 25.0527H227.741C227.315 25.0527 226.973 25.1914 226.717 25.4687C226.483 25.7461 226.365 26.1301 226.365 26.6207V33.2447H232.573ZM257.033 44.4767C254.623 44.4767 252.532 44.0181 250.761 43.1007C248.991 42.1834 247.636 40.8607 246.697 39.1327C245.759 37.4047 245.289 35.3567 245.289 32.9887C245.289 30.6207 245.759 28.5727 246.697 26.8447C247.636 25.0954 248.98 23.7621 250.729 22.8447C252.5 21.9061 254.58 21.4367 256.969 21.4367C258.953 21.4367 260.788 21.7781 262.473 22.4607C264.159 23.1434 265.407 24.0501 266.217 25.1807C266.473 25.5221 266.601 25.8741 266.601 26.2367C266.601 26.7701 266.313 27.2501 265.737 27.6767C265.481 27.8687 265.161 27.9647 264.777 27.9647C264.457 27.9647 264.137 27.9007 263.817 27.7727C263.497 27.6234 263.231 27.4207 263.017 27.1647C262.292 26.3327 261.449 25.7354 260.489 25.3727C259.529 24.9887 258.356 24.7967 256.969 24.7967C254.644 24.7967 252.831 25.5221 251.529 26.9727C250.228 28.4021 249.577 30.4074 249.577 32.9887C249.577 35.5487 250.228 37.5434 251.529 38.9727C252.852 40.4021 254.687 41.1167 257.033 41.1167C259.721 41.1167 261.865 40.3274 263.465 38.7487C264.127 38.1301 264.735 37.8207 265.289 37.8207C265.673 37.8207 266.025 37.9487 266.345 38.2047C266.836 38.6314 267.081 39.1007 267.081 39.6127C267.081 39.9967 266.943 40.3701 266.665 40.7327C265.748 41.9061 264.436 42.8234 262.729 43.4847C261.044 44.1461 259.145 44.4767 257.033 44.4767ZM275.479 44.1567C273.858 44.1567 272.599 43.7301 271.703 42.8767C270.807 42.0234 270.359 40.8287 270.359 39.2927V26.4927C270.359 24.9994 270.786 23.8367 271.639 23.0047C272.514 22.1727 273.719 21.7567 275.255 21.7567H285.207C285.847 21.7567 286.338 21.9061 286.679 22.2047C287.021 22.4821 287.191 22.8874 287.191 23.4207C287.191 23.9327 287.01 24.3381 286.647 24.6367C286.306 24.9141 285.826 25.0527 285.207 25.0527H275.991C275.565 25.0527 275.223 25.1914 274.967 25.4687C274.733 25.7461 274.615 26.1301 274.615 26.6207V31.0687H282.775C283.415 31.0687 283.906 31.2181 284.247 31.5167C284.589 31.7941 284.759 32.1994 284.759 32.7327C284.759 33.2447 284.578 33.6501 284.215 33.9487C283.874 34.2261 283.394 34.3647 282.775 34.3647H274.615V39.2927C274.615 39.7834 274.733 40.1674 274.967 40.4447C275.223 40.7221 275.565 40.8607 275.991 40.8607H285.911C286.551 40.8607 287.042 41.0101 287.383 41.3087C287.725 41.5861 287.895 41.9914 287.895 42.5247C287.895 43.0367 287.714 43.4421 287.351 43.7407C287.01 44.0181 286.53 44.1567 285.911 44.1567H275.479Z" fill="#DE6800"/>
</svg>
